<svg width="142" height="106" viewBox="0 0 142 106" fill="none" xmlns="http://www.w3.org/2000/svg">
<path d="M142 93.0782H0V93.1492H142V93.0782Z" fill="#EBEBEB"/>
<path d="M127.772 97.6477H118.365V97.7187H127.772V97.6477Z" fill="#EBEBEB"/>
<path d="M114.79 97.6477H94.6797V97.7187H114.79V97.6477Z" fill="#EBEBEB"/>
<path d="M83.5896 95.0122H78.1396V95.0832H83.5896V95.0122Z" fill="#EBEBEB"/>
<path d="M24.6368 95.4894H14.8984V95.5604H24.6368V95.4894Z" fill="#EBEBEB"/>
<path d="M44.872 95.4894H27.1646V95.5604H44.872V95.4894Z" fill="#EBEBEB"/>
<path d="M63.9396 96.6881H53.4856V96.7591H63.9396V96.6881Z" fill="#EBEBEB"/>
<path d="M67.3079 80.4118H12.4704C12.0408 80.411 11.629 80.2398 11.3255 79.9358C11.022 79.6318 10.8516 79.2197 10.8516 78.7901V1.70397C10.8553 1.27684 11.0274 0.868433 11.3305 0.567461C11.6336 0.266489 12.0432 0.0972588 12.4704 0.0965271H67.3079C67.738 0.0965271 68.1505 0.267378 68.4546 0.571495C68.7587 0.875611 68.9296 1.28808 68.9296 1.71817V78.7901C68.9296 79.2202 68.7587 79.6327 68.4546 79.9368C68.1505 80.2409 67.738 80.4118 67.3079 80.4118ZM12.4704 0.153327C12.0596 0.15408 11.6659 0.317782 11.3757 0.608502C11.0855 0.899222 10.9226 1.2932 10.9226 1.70397V78.7901C10.9226 79.2009 11.0855 79.5949 11.3757 79.8856C11.6659 80.1763 12.0596 80.34 12.4704 80.3408H67.3079C67.719 80.34 68.1129 80.1764 68.4036 79.8858C68.6942 79.5951 68.8578 79.2012 68.8586 78.7901V1.70397C68.8578 1.29294 68.6942 0.898967 68.4036 0.608328C68.1129 0.317689 67.719 0.154078 67.3079 0.153327H12.4704Z" fill="#EBEBEB"/>
<path d="M128.74 80.4118H73.8997C73.4699 80.411 73.0578 80.2399 72.7539 79.936C72.4499 79.632 72.2788 79.22 72.2781 78.7901V1.70397C72.2826 1.27658 72.4553 0.868177 72.7589 0.567284C73.0624 0.26639 73.4723 0.0972508 73.8997 0.0965271H128.74C129.167 0.0980052 129.576 0.267566 129.878 0.568458C130.181 0.86935 130.352 1.27733 130.356 1.70397V78.7901C130.356 79.2192 130.186 79.6308 129.883 79.9348C129.58 80.2388 129.169 80.4103 128.74 80.4118ZM73.8997 0.153327C73.4887 0.154078 73.0947 0.317689 72.8041 0.608328C72.5134 0.898967 72.3498 1.29294 72.3491 1.70397V78.7901C72.3498 79.2012 72.5134 79.5951 72.8041 79.8858C73.0947 80.1764 73.4887 80.34 73.8997 80.3408H128.74C129.151 80.34 129.545 80.1764 129.836 79.8858C130.126 79.5951 130.29 79.2012 130.291 78.7901V1.70397C130.29 1.29294 130.126 0.898967 129.836 0.608328C129.545 0.317689 129.151 0.154078 128.74 0.153327H73.8997Z" fill="#EBEBEB"/>
<path d="M21.5386 39.351L60.0774 39.351L60.0774 5.96115L21.5386 5.96115L21.5386 39.351Z" fill="#E6E6E6"/>
<path d="M20.678 39.351L59.2168 39.351L59.2168 5.96115L20.678 5.96115L20.678 39.351Z" fill="#F5F5F5"/>
<path d="M57.6804 38.1583V7.15405L22.2173 7.15405V38.1583H57.6804Z" fill="#FAFAFA"/>
<path d="M43.4576 38.1584L49.8845 7.15405H36.4399L30.0159 38.1584H43.4576Z" fill="white"/>
<path d="M22.8647 38.1611L22.8647 7.1568H22.2172L22.2172 38.1611H22.8647Z" fill="#E6E6E6"/>
<path d="M21.3143 32.6002L58.5808 32.6002V30.9984L21.3143 30.9984V32.6002Z" fill="#F5F5F5"/>
<path d="M58.2881 91.3884H64.4424V64.7009H58.2881V91.3884Z" fill="#F0F0F0"/>
<path d="M18.0994 93.0782H63.2639V91.3884H18.0994V93.0782Z" fill="#F0F0F0"/>
<path d="M58.2882 64.6979H16.915V91.3854H58.2882V64.6979Z" fill="#F5F5F5"/>
<path d="M55.8713 67.984H19.3347V76.7369H55.8713V67.984Z" fill="#F0F0F0"/>
<path d="M55.8713 79.3498H19.3347V88.1027H55.8713V79.3498Z" fill="#F0F0F0"/>
<path d="M27.7552 72.9595H47.4506C47.6093 72.9588 47.7613 72.8954 47.8735 72.7832C47.9858 72.671 48.0491 72.519 48.0499 72.3603C48.0491 72.2013 47.9859 72.0491 47.8737 71.9364C47.7616 71.8237 47.6096 71.7597 47.4506 71.7582H27.7552C27.5963 71.7597 27.4443 71.8237 27.3322 71.9364C27.22 72.0491 27.1567 72.2013 27.156 72.3603C27.1568 72.519 27.2201 72.671 27.3323 72.7832C27.4446 72.8954 27.5965 72.9588 27.7552 72.9595Z" fill="#F5F5F5"/>
<path d="M27.7552 84.3253H47.4506C47.6093 84.3245 47.7613 84.2612 47.8735 84.1489C47.9858 84.0367 48.0491 83.8847 48.0499 83.726C48.0499 83.5669 47.9868 83.4141 47.8745 83.3013C47.7622 83.1885 47.6098 83.1247 47.4506 83.124H27.7552C27.5961 83.1247 27.4436 83.1885 27.3313 83.3013C27.219 83.4141 27.156 83.5669 27.156 83.726C27.1568 83.8847 27.2201 84.0367 27.3323 84.1489C27.4446 84.2612 27.5965 84.3245 27.7552 84.3253Z" fill="#F5F5F5"/>
<path d="M122.58 23.4131C126.085 22.4475 127.283 16.0887 118.428 13.493C120.382 19.8886 116.471 25.0887 122.58 23.4131Z" fill="#EBEBEB"/>
<path d="M123.356 26.1734C126.119 23.1885 123.506 16.435 113.555 19.1955C119.184 24.12 118.542 31.3791 123.356 26.1734Z" fill="#E0E0E0"/>
<path d="M120.629 26.9402C118.317 24.6512 121.629 16.685 129.263 20.377C124.937 24.5205 124.676 30.9304 120.629 26.9402Z" fill="#FAFAFA"/>
<path d="M118.323 31.3991H125.051L125.559 26.8466H117.817L118.323 31.3991Z" fill="#E6E6E6"/>
<path d="M117.741 27.6616H125.636C125.769 27.6616 125.897 27.6086 125.991 27.5143C126.086 27.4201 126.139 27.2922 126.139 27.1589C126.139 27.0256 126.086 26.8977 125.991 26.8035C125.897 26.7092 125.769 26.6562 125.636 26.6562H117.741C117.607 26.6562 117.48 26.7092 117.385 26.8035C117.291 26.8977 117.238 27.0256 117.238 27.1589C117.238 27.2922 117.291 27.4201 117.385 27.5143C117.48 27.6086 117.607 27.6616 117.741 27.6616Z" fill="#E6E6E6"/>
<path d="M61.7161 85.3675V77.6569H68.1373V69.9491H74.5614V62.2385H80.9826V54.5279H87.4067V46.8202H93.828V39.1096H100.252V31.399H106.676H142V93.0781H61.7161H55.292V85.3675H61.7161Z" fill="#FAFAFA"/>
<path d="M97.0399 85.3675V77.6569H103.464V69.9491H109.885V62.2385H116.309V54.5279H122.731V46.8202H129.155V39.1096H135.576V31.399H142V39.1096V93.0781H97.0399H90.6187V85.3675H97.0399Z" fill="#E0E0E0"/>
<path d="M90.6188 85.3674H54.9143V87.6792H90.6188V85.3674Z" fill="#EBEBEB"/>
<path d="M97.0429 77.6568H61.3384V79.9686H97.0429V77.6568Z" fill="#EBEBEB"/>
<path d="M103.464 69.9493H67.7595V72.261H103.464V69.9493Z" fill="#EBEBEB"/>
<path d="M109.888 62.2385H74.1836V64.5503H109.888V62.2385Z" fill="#EBEBEB"/>
<path d="M116.309 54.5278H80.605V56.8396H116.309V54.5278Z" fill="#EBEBEB"/>
<path d="M122.733 46.8201H87.0288V49.1319H122.733V46.8201Z" fill="#EBEBEB"/>
<path d="M129.155 39.1095H93.4502V41.4213H129.155V39.1095Z" fill="#EBEBEB"/>
<path d="M135.579 31.399H99.8743V33.7107H135.579V31.399Z" fill="#EBEBEB"/>
<path d="M71.0001 105.904C101.411 105.904 126.065 104.464 126.065 102.689C126.065 100.913 101.411 99.4738 71.0001 99.4738C40.5886 99.4738 15.9353 100.913 15.9353 102.689C15.9353 104.464 40.5886 105.904 71.0001 105.904Z" fill="#F5F5F5"/>
<path d="M95.0548 29.5275C95.0037 30.3795 94.9043 31.1605 94.7936 31.9699C94.6828 32.7793 94.5323 33.5716 94.3619 34.3668C94.0297 35.9763 93.5496 37.5516 92.9277 39.0727L92.6692 39.6407L92.6068 39.7827L92.584 39.8566L92.5386 39.9474C92.4518 40.1257 92.342 40.2918 92.212 40.4416C92.0572 40.6158 91.8725 40.761 91.6667 40.8705C91.4647 40.9764 91.2455 41.0457 91.0192 41.0749C90.6718 41.1121 90.3205 41.0753 89.9883 40.967C89.5177 40.8064 89.0736 40.5766 88.6705 40.2854C88.318 40.0368 87.9813 39.7665 87.6623 39.476C86.467 38.3677 85.3914 37.1369 84.4531 35.8039L85.3932 35.0058C85.9612 35.5312 86.5292 36.0623 87.0972 36.565C87.6619 37.0676 88.2514 37.5415 88.8636 37.985C89.1518 38.1912 89.4514 38.3808 89.7611 38.553C90.0107 38.7044 90.2803 38.8201 90.562 38.8966C90.6585 38.9165 90.7267 38.8966 90.6954 38.8966C90.6285 38.9041 90.5657 38.933 90.5165 38.979C90.4995 38.979 90.4995 38.979 90.5165 38.979L90.6074 38.7433L90.8062 38.2264C91.2989 36.8033 91.6834 35.3451 91.9564 33.8642C92.1069 33.1201 92.212 32.3618 92.3256 31.6092C92.4392 30.8566 92.5187 30.0813 92.584 29.3628L95.0548 29.5275Z" fill="#FFC3BD"/>
<path d="M93.3338 26.4005C92.2745 26.6703 91.5332 31.0269 91.5332 31.0269L94.4499 33.0149C94.4499 33.0149 97.2473 28.6214 96.4379 27.457C95.5859 26.2387 94.8787 26.0086 93.3338 26.4005Z" fill="#18181B"/>
<path d="M93.3338 26.4005C92.2745 26.6703 91.5332 31.0269 91.5332 31.0269L94.4499 33.0149C94.4499 33.0149 97.2473 28.6214 96.4379 27.457C95.5859 26.2387 94.8787 26.0086 93.3338 26.4005Z" fill="#18181B"/>
<path opacity="0.4" d="M93.3338 26.4005C92.2745 26.6703 91.5332 31.0269 91.5332 31.0269L94.4499 33.0149C94.4499 33.0149 97.2473 28.6214 96.4379 27.457C95.5859 26.2387 94.8787 26.0086 93.3338 26.4005Z" fill="black"/>
<path opacity="0.3" d="M93.4275 27.3745L92.6152 31.7623L94.2539 32.8756L93.4275 27.3745Z" fill="black"/>
<path d="M85.4414 34.8269L84.064 32.6344L83.2773 35.1251C83.2773 35.1251 84.4133 36.3179 85.4443 36.0339L85.4414 34.8269Z" fill="#FFC3BD"/>
<path d="M82.0192 31.9103L81.4739 34.0289L83.2659 35.1252L84.0526 32.6345L82.0192 31.9103Z" fill="#FFC3BD"/>
<path d="M99.0592 99.7098H96.4918L96.3186 93.7628H98.8888L99.0592 99.7098Z" fill="#FFC3BD"/>
<path d="M121.72 87.7815L119.763 89.4458L115.284 85.4471L117.241 83.7857L121.72 87.7815Z" fill="#FFC3BD"/>
<path d="M119.226 89.2471L121.126 87.0717C121.159 87.0342 121.204 87.0098 121.253 87.003C121.302 86.9963 121.352 87.0075 121.393 87.0348L123.327 88.2872C123.375 88.3204 123.415 88.3632 123.445 88.413C123.475 88.4628 123.494 88.5183 123.501 88.576C123.508 88.6336 123.503 88.6921 123.485 88.7476C123.468 88.8031 123.439 88.8543 123.401 88.8978C122.725 89.6447 122.361 89.9713 121.527 90.9256C121.015 91.5135 120.325 92.4279 119.615 93.2373C118.905 94.0467 118.065 93.3935 118.289 92.9903C119.286 91.1897 119.047 90.5592 119.064 89.6731C119.067 89.5166 119.124 89.3659 119.226 89.2471Z" fill="#263238"/>
<path d="M96.4038 99.4143H99.2892C99.3389 99.4138 99.387 99.4314 99.4247 99.4638C99.4623 99.4962 99.4868 99.5412 99.4937 99.5903L99.8232 101.862C99.8324 101.922 99.8283 101.984 99.8111 102.042C99.7938 102.1 99.7639 102.154 99.7235 102.199C99.683 102.245 99.633 102.28 99.5771 102.304C99.5212 102.328 99.4607 102.339 99.4 102.337C98.3946 102.32 97.909 102.26 96.6395 102.26C95.8585 102.26 94.2454 102.342 93.1662 102.342C92.087 102.342 92.0302 101.274 92.4818 101.181C94.4925 100.746 95.2848 100.15 95.9636 99.579C96.0856 99.4728 96.242 99.4142 96.4038 99.4143Z" fill="#263238"/>
<path opacity="0.2" d="M96.3213 93.7655L96.4093 96.8299H98.9767L98.8887 93.7655H96.3213Z" fill="black"/>
<path opacity="0.2" d="M117.244 83.7857L115.284 85.4471L117.596 87.5089L119.553 85.8447L117.244 83.7857Z" fill="black"/>
<path d="M93.3337 26.4006C93.3337 26.4006 92.1097 26.8323 94.5606 41.9014H104.989C104.816 37.6555 104.81 35.0371 106.838 26.3268C105.378 26.0258 103.898 25.8302 102.41 25.7417C100.833 25.6294 99.2503 25.6294 97.6733 25.7417C95.6398 25.9405 93.3337 26.4006 93.3337 26.4006Z" fill="#18181B"/>
<path opacity="0.4" d="M93.3337 26.4006C93.3337 26.4006 92.1097 26.8323 94.5606 41.9014H104.989C104.816 37.6555 104.81 35.0371 106.838 26.3268C105.378 26.0258 103.898 25.8302 102.41 25.7417C100.833 25.6294 99.2503 25.6294 97.6733 25.7417C95.6398 25.9405 93.3337 26.4006 93.3337 26.4006Z" fill="black"/>
<path d="M102.41 25.7417C100.833 25.6294 99.2503 25.6294 97.6733 25.7417C97.4177 25.7645 97.1564 25.7929 96.898 25.8241C96.791 25.9855 96.7226 26.1693 96.698 26.3614C96.6734 26.5534 96.6932 26.7485 96.756 26.9317C97.0882 27.7581 98.2867 27.8547 99.1615 27.8547C102.391 27.8547 102.936 25.9689 102.959 25.8894L102.99 25.7758C102.808 25.7645 102.604 25.7503 102.41 25.7417Z" fill="white"/>
<path d="M101.956 20.4112C101.655 21.9334 101.359 24.7252 102.424 25.7419C102.424 25.7419 102.007 27.2897 99.1755 27.2897C96.0515 27.2897 97.6873 25.7447 97.6873 25.7447C99.3913 25.3386 99.3431 24.0776 99.0477 22.9047L101.956 20.4112Z" fill="#FFC3BD"/>
<path opacity="0.2" d="M100.755 21.4222L99.0337 22.8905C99.1078 23.1696 99.1572 23.4547 99.1814 23.7425C99.8289 23.6488 100.721 22.9359 100.792 22.2572C100.831 21.979 100.819 21.6958 100.755 21.4222Z" fill="black"/>
<path d="M100.17 12.1241C99.9054 11.2295 99.6839 9.82086 101.274 9.1847C100.652 8.42358 100.502 6.99222 101.274 6.14306C102.047 5.2939 103.206 5.6063 103.206 5.6063C103.206 5.6063 103.546 3.53026 106.071 3.9023C108.596 4.27434 107.471 5.93574 107.471 5.93574C107.471 5.93574 110.916 5.25414 111.146 8.49174C111.376 11.7293 109.4 11.3317 109.4 11.3317C109.4 11.3317 110.936 12.6211 110.084 14.0383C109.232 15.4554 107.264 14.9669 107.264 14.9669C107.264 14.9669 106.338 17.4718 104.157 16.0461C101.976 14.6205 100.17 12.1241 100.17 12.1241Z" fill="#263238"/>
<path d="M95.0547 14.0127C94.2027 15.1146 94.5776 16.3614 95.3387 16.8527C97.1705 18.0228 99.8202 13.1152 99.1301 12.5274C98.44 11.9395 95.9067 12.9079 95.0547 14.0127Z" fill="#263238"/>
<path d="M102.748 11.3886C101.544 10.903 100.323 11.4113 99.9425 12.144C99.0138 13.9304 103.231 17.1481 104.452 14.9159C105.177 13.5896 103.989 11.8884 102.748 11.3886Z" fill="#18181B"/>
<path d="M102.24 16.8524C102.328 19.4084 102.419 20.4763 101.263 21.8991C99.5277 24.0376 96.3781 23.5889 95.5318 21.1181C94.7707 18.8944 94.7565 15.103 97.1393 13.8591C97.663 13.582 98.249 13.4434 98.8414 13.4565C99.4338 13.4696 100.013 13.6339 100.524 13.9338C101.035 14.2337 101.461 14.6593 101.761 15.1701C102.062 15.6809 102.226 16.26 102.24 16.8524Z" fill="#FFC3BD"/>
<path d="M101.856 18.1902C100.72 17.7671 100.436 16.4408 100.618 15.9182C100.05 15.8955 98.8091 15.691 98.3462 14.9867C97.4601 15.5547 95.5886 16.1227 95.3869 15.177C95.1853 14.2313 98.0083 11.8002 100.144 11.6128C102.683 11.3913 105.188 13.8848 104.543 16.2732C103.898 18.6617 101.856 18.1902 101.856 18.1902Z" fill="#263238"/>
<path d="M94.5721 41.9013C94.5721 41.9013 92.5471 61.6819 92.7147 69.5146C92.8908 77.6597 95.8756 96.2362 95.8756 96.2362H99.3461C99.3461 96.2362 98.798 78.134 99.1047 70.1366C99.4398 61.4149 102.209 41.9013 102.209 41.9013H94.5721Z" fill="#263238"/>
<path d="M99.6356 96.3612H95.563L95.262 95.0633L99.8258 94.9043L99.6356 96.3612Z" fill="#18181B"/>
<path opacity="0.2" d="M99.0592 46.8231C96.5032 51.9749 98.5452 61.3753 99.4511 64.8742C99.914 59.6202 100.698 53.1989 101.308 48.4845C100.922 45.8206 100.252 44.4461 99.0592 46.8231Z" fill="black"/>
<path d="M97.3154 41.9012C97.3154 41.9012 99.6783 62.4656 101.462 69.0686C103.58 76.907 116.738 87.4576 116.738 87.4576L119.408 85.1856C119.408 85.1856 109.871 73.7234 108.249 69.594C104.793 60.79 107.752 47.6465 104.989 41.8955L97.3154 41.9012Z" fill="#263238"/>
<path d="M119.834 85.0695L116.522 87.8811L115.284 87.1399L119.03 83.6552L119.834 85.0695Z" fill="#18181B"/>
<path d="M98.46 17.9204C98.4799 18.1277 98.3861 18.3038 98.2526 18.318C98.1192 18.3322 97.9914 18.1731 97.9686 17.9687C97.9459 17.7642 98.0425 17.5824 98.1788 17.5711C98.3151 17.5597 98.4401 17.7045 98.46 17.9204Z" fill="#263238"/>
<path d="M96.131 18.1447C96.1509 18.3492 96.0572 18.5281 95.9208 18.5423C95.7845 18.5565 95.6624 18.3974 95.6368 18.1901C95.6113 17.9828 95.7107 17.8067 95.8442 17.7954C95.9776 17.784 96.1111 17.9374 96.131 18.1447Z" fill="#263238"/>
<path d="M95.9097 17.8012L95.4014 17.7047C95.4014 17.7047 95.7081 18.0682 95.9097 17.8012Z" fill="#263238"/>
<path d="M96.7787 18.44C96.6404 18.9276 96.4359 19.394 96.1709 19.826C96.2835 19.8908 96.4089 19.9304 96.5383 19.9422C96.6677 19.9539 96.7982 19.9375 96.9207 19.8941L96.7787 18.44Z" fill="#ED847E"/>
<path d="M98.0653 20.573C97.9528 20.6038 97.8378 20.6247 97.7216 20.6354C97.7138 20.6362 97.7059 20.6354 97.6984 20.6331C97.6908 20.6309 97.6838 20.6271 97.6777 20.6221C97.6717 20.6171 97.6666 20.6109 97.663 20.6039C97.6593 20.5969 97.657 20.5893 97.6563 20.5815C97.6547 20.5653 97.6594 20.5492 97.6695 20.5365C97.6796 20.5238 97.6942 20.5154 97.7103 20.5133C97.9673 20.4944 98.2164 20.4154 98.4374 20.2827C98.6583 20.1501 98.8451 19.9674 98.9826 19.7494C98.9859 19.7418 98.9907 19.7351 98.9968 19.7296C99.0029 19.7242 99.0101 19.7201 99.0179 19.7176C99.0257 19.7152 99.034 19.7145 99.0421 19.7156C99.0502 19.7166 99.058 19.7194 99.065 19.7238C99.079 19.7316 99.0895 19.7445 99.0942 19.7599C99.099 19.7752 99.0977 19.7918 99.0905 19.8062C98.8614 20.1853 98.4937 20.4603 98.0653 20.573Z" fill="#263238"/>
<path d="M102.836 18.6163C102.774 19.1051 102.521 19.5493 102.132 19.8517C101.612 20.2493 101.112 19.8518 101.053 19.2298C101.002 18.6618 101.206 17.8098 101.825 17.6451C101.96 17.6176 102.1 17.6232 102.232 17.6616C102.365 17.7 102.486 17.77 102.585 17.8655C102.685 17.961 102.76 18.0793 102.803 18.21C102.847 18.3408 102.858 18.4802 102.836 18.6163Z" fill="#FFC3BD"/>
<path d="M98.7098 16.4608C98.694 16.4648 98.6776 16.4656 98.6615 16.4631C98.6454 16.4607 98.63 16.455 98.6161 16.4466C98.4873 16.3644 98.341 16.3138 98.1889 16.299C98.0369 16.2842 97.8836 16.3056 97.7414 16.3614C97.7118 16.3745 97.6784 16.3759 97.6478 16.3654C97.6173 16.3548 97.5918 16.3331 97.5766 16.3046C97.5629 16.2755 97.5612 16.2423 97.5718 16.212C97.5825 16.1817 97.6046 16.1568 97.6334 16.1427C97.8123 16.0688 98.0063 16.039 98.199 16.0558C98.3918 16.0726 98.5777 16.1355 98.741 16.2392C98.7545 16.2474 98.7663 16.2581 98.7756 16.2708C98.7849 16.2836 98.7916 16.298 98.7953 16.3133C98.799 16.3286 98.7996 16.3445 98.7971 16.3601C98.7946 16.3756 98.7891 16.3905 98.7808 16.404C98.7651 16.4311 98.7398 16.4514 98.7098 16.4608Z" fill="#263238"/>
<path d="M94.9895 17.1677C94.9602 17.1788 94.9279 17.1788 94.8986 17.1677C94.871 17.1516 94.8507 17.1255 94.8417 17.0949C94.8327 17.0643 94.8358 17.0314 94.8503 17.0029C94.937 16.8301 95.0641 16.6807 95.2208 16.5675C95.3775 16.4543 95.5593 16.3805 95.7506 16.3526C95.7665 16.351 95.7826 16.3527 95.7978 16.3574C95.8131 16.3622 95.8272 16.37 95.8394 16.3803C95.8516 16.3906 95.8615 16.4033 95.8687 16.4176C95.8759 16.4318 95.8802 16.4474 95.8812 16.4633C95.8836 16.4953 95.8733 16.5269 95.8526 16.5513C95.8319 16.5758 95.8024 16.5911 95.7705 16.594C95.6198 16.6193 95.4773 16.6799 95.3544 16.7707C95.2315 16.8615 95.1318 16.98 95.0633 17.1165C95.0553 17.1298 95.0445 17.1411 95.0318 17.1499C95.0191 17.1587 95.0047 17.1648 94.9895 17.1677Z" fill="#263238"/>
<path d="M107.903 29.0958C108.482 30.5124 108.982 31.9602 109.4 33.4325C109.843 34.9176 110.158 36.4377 110.342 37.9765C110.391 38.3684 110.405 38.7802 110.422 39.1863V39.4164C110.422 39.4987 110.408 39.5839 110.396 39.6578C110.373 39.7997 110.341 39.9401 110.3 40.0781C110.226 40.3143 110.131 40.5433 110.016 40.7625C109.622 41.4906 109.139 42.167 108.579 42.7761C107.542 43.9149 106.401 44.9541 105.171 45.8802L104.35 44.9686C105.296 43.8638 106.25 42.7306 107.059 41.5606C107.451 41.0296 107.784 40.4583 108.053 39.8566C108.1 39.7401 108.138 39.6205 108.167 39.4987C108.175 39.4575 108.18 39.4157 108.181 39.3738C108.183 39.3615 108.183 39.3491 108.181 39.3368V39.2971C108.144 38.962 108.119 38.6268 108.056 38.2832C107.812 36.8803 107.471 35.4958 107.037 34.1396C106.602 32.7651 106.117 31.3706 105.617 30.0415L107.903 29.0958Z" fill="#FFC3BD"/>
<path d="M106.838 26.3266C107.883 26.6447 109.138 30.243 109.138 30.243L105.08 33.1398C105.08 33.1398 103.6 30.1379 104.041 28.7861C104.512 27.3803 105.648 25.9631 106.838 26.3266Z" fill="#18181B"/>
<path opacity="0.4" d="M106.838 26.3266C107.883 26.6447 109.138 30.243 109.138 30.243L105.08 33.1398C105.08 33.1398 103.6 30.1379 104.041 28.7861C104.512 27.3803 105.648 25.9631 106.838 26.3266Z" fill="black"/>
<path d="M118.524 90.4851C118.472 90.4837 118.42 90.4704 118.374 90.4463C118.327 90.4222 118.286 90.3879 118.255 90.3459C118.229 90.3193 118.211 90.2864 118.202 90.2505C118.193 90.2146 118.193 90.177 118.204 90.1414C118.3 89.829 119.192 89.5734 119.294 89.545C119.305 89.541 119.317 89.5408 119.329 89.5444C119.34 89.548 119.35 89.5552 119.357 89.5649C119.363 89.5746 119.366 89.586 119.366 89.5976C119.366 89.6092 119.363 89.6205 119.357 89.6302C119.198 89.9341 118.882 90.4453 118.559 90.4822L118.524 90.4851ZM119.183 89.7041C118.831 89.8177 118.371 90.0136 118.331 90.1783C118.327 90.1939 118.327 90.2104 118.332 90.2259C118.336 90.2415 118.345 90.2555 118.357 90.2664C118.38 90.2989 118.41 90.325 118.446 90.3419C118.482 90.3588 118.522 90.3661 118.561 90.3629C118.726 90.3431 118.956 90.0988 119.183 89.7041Z" fill="#18181B"/>
<path d="M118.902 89.7158C118.637 89.7428 118.37 89.6677 118.158 89.5056C118.128 89.468 118.112 89.4215 118.112 89.3736C118.112 89.3256 118.128 89.2791 118.158 89.2415C118.183 89.2021 118.217 89.1689 118.257 89.1443C118.297 89.1198 118.342 89.1044 118.388 89.0995C118.757 89.0541 119.317 89.5369 119.34 89.5567C119.348 89.5634 119.354 89.5723 119.358 89.5823C119.361 89.5923 119.362 89.6032 119.36 89.6136C119.358 89.6246 119.354 89.6351 119.347 89.6437C119.34 89.6522 119.33 89.6586 119.32 89.6618C119.184 89.7005 119.043 89.7186 118.902 89.7158ZM118.451 89.2188H118.411C118.382 89.2221 118.354 89.2316 118.329 89.2469C118.304 89.2621 118.282 89.2825 118.266 89.3068C118.224 89.3721 118.238 89.4062 118.266 89.4289C118.377 89.5738 118.882 89.6277 119.189 89.5709C118.979 89.3892 118.724 89.2676 118.451 89.2188Z" fill="#18181B"/>
<path d="M95.4381 99.863C95.2187 99.8829 94.9991 99.8267 94.8162 99.7039C94.7771 99.6683 94.7468 99.6241 94.7276 99.5749C94.7084 99.5256 94.7008 99.4726 94.7054 99.4199C94.7077 99.3862 94.7186 99.3537 94.737 99.3254C94.7554 99.297 94.7807 99.2739 94.8105 99.258C95.1257 99.0848 96.1481 99.6073 96.2646 99.6698C96.2754 99.6759 96.2842 99.6852 96.2897 99.6963C96.2953 99.7074 96.2974 99.72 96.2958 99.7323C96.2942 99.7448 96.2887 99.7566 96.28 99.7657C96.2713 99.7749 96.26 99.7811 96.2475 99.7834C95.9807 99.8346 95.7098 99.8612 95.4381 99.863ZM94.9809 99.3319C94.9417 99.3294 94.9025 99.3372 94.8673 99.3546C94.8551 99.3605 94.8449 99.3699 94.8379 99.3814C94.8308 99.393 94.8272 99.4064 94.8275 99.4199C94.8229 99.4554 94.8269 99.4916 94.8393 99.5252C94.8516 99.5589 94.872 99.589 94.8985 99.613C95.0547 99.755 95.4665 99.7777 96.0345 99.684C95.706 99.5074 95.3496 99.3883 94.9809 99.3319Z" fill="#18181B"/>
<path d="M96.2362 99.7804H96.2106C95.9039 99.6412 95.299 99.0874 95.3586 98.7978C95.3586 98.7296 95.4182 98.6416 95.5858 98.6245C95.6463 98.6182 95.7075 98.6243 95.7656 98.6423C95.8237 98.6604 95.8775 98.6901 95.9238 98.7296C96.2447 98.9994 96.3043 99.6895 96.3072 99.7208C96.308 99.7312 96.3061 99.7417 96.3016 99.7512C96.2971 99.7606 96.2902 99.7688 96.2816 99.7747C96.2749 99.7789 96.2674 99.7816 96.2595 99.7826C96.2517 99.7836 96.2437 99.7828 96.2362 99.7804ZM95.6227 98.7381H95.5886C95.475 98.7381 95.4694 98.7949 95.4665 98.8091C95.4381 98.9824 95.8499 99.4197 96.1623 99.6072C96.1369 99.3154 96.0218 99.0386 95.8329 98.8148C95.7754 98.762 95.7008 98.7317 95.6227 98.7296V98.7381Z" fill="#18181B"/>
<path d="M105.145 41.2765L105.412 42.2108C105.449 42.2818 105.364 42.3557 105.242 42.3557H94.5095C94.4157 42.3557 94.3362 42.3102 94.3305 42.2506L94.2368 41.3191C94.2368 41.2537 94.3107 41.1998 94.4157 41.1998H104.978C105.01 41.1971 105.042 41.2027 105.072 41.2161C105.101 41.2295 105.126 41.2503 105.145 41.2765Z" fill="#18181B"/>
<path opacity="0.3" d="M105.145 41.2765L105.412 42.2108C105.449 42.2818 105.364 42.3557 105.242 42.3557H94.5095C94.4157 42.3557 94.3362 42.3102 94.3305 42.2506L94.2368 41.3191C94.2368 41.2537 94.3107 41.1998 94.4157 41.1998H104.978C105.01 41.1971 105.042 41.2027 105.072 41.2161C105.101 41.2295 105.126 41.2503 105.145 41.2765Z" fill="white"/>
<path d="M103.728 42.4693H104.012C104.066 42.4693 104.109 42.4409 104.106 42.404L103.972 41.1913C103.972 41.1573 103.921 41.126 103.865 41.126H103.581C103.524 41.126 103.481 41.1573 103.487 41.1913L103.617 42.404C103.623 42.4409 103.66 42.4693 103.728 42.4693Z" fill="#263238"/>
<path d="M95.3045 42.4693H95.5885C95.6453 42.4693 95.6879 42.4409 95.6851 42.404L95.5516 41.1913C95.5516 41.1573 95.4976 41.126 95.4437 41.126H95.1597C95.1029 41.126 95.0603 41.1573 95.0631 41.1913L95.1966 42.404C95.1994 42.4409 95.2477 42.4693 95.3045 42.4693Z" fill="#263238"/>
<path d="M99.5164 42.4693H99.8004C99.8572 42.4693 99.8998 42.4409 99.897 42.404L99.7635 41.1913C99.7635 41.1573 99.7124 41.126 99.6556 41.126H99.3716C99.3148 41.126 99.2722 41.1573 99.2779 41.1913L99.4 42.4125C99.4 42.4409 99.4596 42.4693 99.5164 42.4693Z" fill="#263238"/>
<path d="M98.2413 17.5767L97.7329 17.4802C97.7329 17.4802 98.0226 17.8437 98.2413 17.5767Z" fill="#263238"/>
<path opacity="0.2" d="M88.8408 53.7414C84.0292 55.6106 78.7714 56.0112 73.7322 54.8923C68.693 53.7734 64.0988 51.1854 60.5304 47.4555C56.962 43.7257 54.5798 39.0214 53.685 33.9376C52.7901 28.8539 53.4229 23.6189 55.5032 18.8948C57.5835 14.1706 61.0179 10.1694 65.3722 7.3971C69.7264 4.62481 74.805 3.20593 79.9657 3.3199C85.1263 3.43387 90.1373 5.07556 94.3649 8.03738C98.5926 10.9992 101.847 15.1481 103.717 19.9595C104.959 23.1544 105.559 26.5626 105.484 29.9895C105.408 33.4165 104.658 36.795 103.277 39.932C101.895 43.0691 99.9094 45.9033 97.4325 48.2727C94.9555 50.6422 92.036 52.5004 88.8408 53.7414Z" fill="#18181B"/>
<path opacity="0.1" d="M84.1179 3.74601L63.6472 50.2368C63.3319 49.9983 63.0196 49.7512 62.7128 49.5013C60.7343 47.8645 59.0113 45.9414 57.6008 43.7957L75.2827 3.63809C78.2121 3.16627 81.2009 3.20278 84.1179 3.74601Z" fill="white"/>
<path opacity="0.1" d="M98.6701 11.8117L79.4235 55.5221C75.4257 55.5264 71.4805 54.6111 67.8931 52.8469L88.9091 5.11496C92.6322 6.57105 95.9716 8.86208 98.6701 11.8117Z" fill="white"/>
<path d="M57.9018 11.8316C61.3795 7.58216 66.0393 4.45939 71.2918 2.85821C76.5443 1.25704 82.1537 1.24937 87.4106 2.83617C92.6675 4.42298 97.3358 7.53299 100.825 11.7729C104.314 16.0129 106.468 21.1923 107.014 26.6563C107.56 32.1203 106.473 37.6234 103.891 42.4697C101.309 47.316 97.3482 51.2879 92.509 53.883C87.6698 56.4782 82.1697 57.5801 76.7042 57.0494C71.2388 56.5187 66.0534 54.3792 61.8039 50.9015C56.1061 46.2376 52.4941 39.5014 51.7623 32.1746C51.0305 24.8478 53.2389 17.5304 57.9018 11.8316ZM99.1158 45.5595C102.308 41.6573 104.272 36.8961 104.758 31.878C105.245 26.8598 104.232 21.8102 101.849 17.3674C99.4654 12.9247 95.8182 9.2885 91.3683 6.91855C86.9184 4.5486 81.8657 3.55137 76.8491 4.05295C71.8325 4.55453 67.0772 6.5324 63.1847 9.73647C59.2921 12.9405 56.437 17.2269 54.9804 22.0535C53.5239 26.8802 53.5312 32.0304 55.0016 36.8528C56.4719 41.6753 59.3393 45.9535 63.241 49.1464C65.832 51.2667 68.8152 52.8559 72.0204 53.8231C75.2257 54.7904 78.59 55.1168 81.9214 54.7837C85.2527 54.4506 88.4859 53.4646 91.4361 51.8819C94.3864 50.2992 96.9959 48.1508 99.1158 45.5595Z" fill="#18181B"/>
<path d="M101.567 45.4627C104.302 47.0957 106.903 48.8905 109.459 50.7422C112.015 52.5939 114.506 54.5223 116.957 56.5017C119.408 58.4812 121.813 60.5175 124.134 62.656C125.296 63.7239 126.432 64.8201 127.542 65.9447C128.655 67.0807 129.748 68.2167 130.779 69.4493C131.017 69.7347 131.149 70.0941 131.15 70.4658C131.152 70.8375 131.025 71.1983 130.789 71.486C130.554 71.7738 130.226 71.9705 129.861 72.0425C129.496 72.1145 129.118 72.0571 128.791 71.8803C127.371 71.1135 126.042 70.2672 124.716 69.401C123.389 68.5348 122.094 67.6317 120.816 66.703C118.26 64.8513 115.787 62.9003 113.364 60.8867C110.942 58.8731 108.556 56.8141 106.236 54.6728C103.916 52.5314 101.641 50.3389 99.4994 47.9817C99.232 47.6902 99.0787 47.312 99.0675 46.9166C99.0564 46.5211 99.1882 46.1349 99.4388 45.8288C99.6893 45.5227 100.042 45.3171 100.432 45.2499C100.822 45.1826 101.223 45.2582 101.561 45.4627H101.567Z" fill="#18181B"/>
<path d="M104.623 44.6845L101.879 45.102L103.842 46.8231C103.842 46.8231 105.392 46.2551 105.546 45.2043L104.623 44.6845Z" fill="#FFC3BD"/>
<path d="M100.397 46.6782L102.121 48.03L104.225 46.6554L101.879 45.1076L100.397 46.6782Z" fill="#FFC3BD"/>
<path d="M87.4265 49.6687C87.6771 48.9846 88.1289 48.3925 88.7225 47.9702C89.3162 47.5479 90.0237 47.3153 90.7521 47.3029H113.486C113.879 47.2883 114.27 47.36 114.633 47.513C114.995 47.666 115.319 47.8966 115.582 48.1886C115.845 48.4806 116.041 48.8267 116.156 49.2027C116.271 49.5787 116.302 49.9752 116.247 50.3645L110.374 99.6413C110.249 100.48 109.83 101.247 109.192 101.806C108.553 102.364 107.737 102.677 106.889 102.689H34.753C34.3615 102.704 33.9715 102.633 33.6104 102.48C33.2493 102.328 32.926 102.099 32.6631 101.809C32.4002 101.518 32.2042 101.173 32.0888 100.799C31.9735 100.425 31.9416 100.029 31.9954 99.6413L36.9199 58.2398C37.0446 57.4009 37.4636 56.6337 38.102 56.0754C38.7404 55.5171 39.5566 55.2042 40.4046 55.1925H79.6591C81.3601 55.1635 83.0125 54.6203 84.3989 53.6343C85.7853 52.6484 86.8408 51.2659 87.4265 49.6687Z" fill="#18181B"/>
<path d="M33.2932 100.419H108.67L112.964 49.7027H37.5901L33.2932 100.419Z" fill="#F0F0F0"/>
<path d="M33.2932 100.419H108.67L111.777 49.7027H37.5901L33.2932 100.419Z" fill="#E0E0E0"/>
<path d="M33.2932 100.419H108.67L111.26 48.0924H35.8861L33.2932 100.419Z" fill="#F0F0F0"/>
<path d="M33.2932 100.419H108.67L109.695 48.0924H35.8861L33.2932 100.419Z" fill="#E0E0E0"/>
<path d="M33.2932 100.42H108.67L109.118 46.6726H33.7448L33.2932 100.42Z" fill="#F0F0F0"/>
<path d="M33.2932 100.42H108.67L107.122 47.6892H32.2339L33.2932 100.42Z" fill="#E0E0E0"/>
<path d="M33.2934 100.419H108.67L106.432 48.0924H31.0583L33.2934 100.419Z" fill="#F0F0F0"/>
<path d="M33.2933 100.419H108.67L105.106 48.8818H29.7319L33.2933 100.419Z" fill="#E0E0E0"/>
<path d="M33.2932 100.42H108.67L104.537 49.3222H29.1638L33.2932 100.42Z" fill="#F0F0F0"/>
<path d="M71.0398 52.8693C71.0441 52.5398 71.1145 52.2145 71.2471 51.9128C71.3796 51.6111 71.5715 51.3391 71.8113 51.1131C72.0511 50.887 72.3339 50.7116 72.6429 50.5971C72.952 50.4826 73.2809 50.4315 73.6101 50.4468H96.3442C97.2244 50.4806 98.0685 50.8057 98.7439 51.3711C99.4194 51.9366 99.8879 52.7103 100.076 53.5708L109.059 99.5788C109.394 101.303 108.269 102.703 106.546 102.703H34.4095C32.6828 102.703 31.0015 101.303 30.6749 99.5788L23.2654 61.6506C22.9303 59.9267 24.0549 58.5266 25.7788 58.5266H65.0361C68.4441 58.5266 70.9234 56.1808 71.0398 52.8693Z" fill="#18181B"/>
<path opacity="0.2" d="M71.0399 52.8693C71.0441 52.5398 71.1145 52.2145 71.2471 51.9128C71.3796 51.6111 71.5715 51.3391 71.8113 51.1131C72.0511 50.887 72.3339 50.7116 72.6429 50.5971C72.952 50.4826 73.2809 50.4315 73.6101 50.4468H96.3442C97.2244 50.4806 98.0685 50.8057 98.7439 51.3711C99.4194 51.9366 99.8879 52.7103 100.076 53.5708L109.059 99.5788C109.394 101.303 108.269 102.703 106.546 102.703H34.4095C32.6828 102.703 31.0015 101.303 30.6749 99.5788L23.2654 61.6506C22.9303 59.9267 24.0549 58.5266 25.7788 58.5266H65.0361C68.4441 58.5266 70.9234 56.1808 71.0399 52.8693Z" fill="#18181B"/>
</svg>
